<?xml version="1.0"?>
<svg xmlns="http://www.w3.org/2000/svg" viewBox="0 0 64 64" width="512" height="512"><g id="restaurant-delivery-bag-food"><path d="M28,32H27V28H25v4H24V28H22v8a3.992,3.992,0,0,0,1.864,3.37L23,48.91A1,1,0,0,0,24,50h4a1,1,0,0,0,1-1.09l-.86-9.54A3.992,3.992,0,0,0,30,36V28H28Zm0,4a2,2,0,0,1-4,0V34h4ZM26.906,48H25.094l.723-8.019c.062,0,.12.019.183.019s.121-.016.183-.019Z"/><path d="M41,28a7.009,7.009,0,0,0-7,7v4a1,1,0,0,0,.684.948l2.233.745-.911,8.2A1,1,0,0,0,37,50h4a1,1,0,0,0,1-1V29A1,1,0,0,0,41,28ZM38.117,48l.74-6.66L40,41.72V48ZM40,39.612l-4-1.333V35a5.008,5.008,0,0,1,4-4.9v9.511Z"/><path d="M32,20A18,18,0,1,0,50,38,18.021,18.021,0,0,0,32,20Zm0,34A16,16,0,1,1,48,38,16.019,16.019,0,0,1,32,54Z"/><path d="M55.01,51.88,58,17.08A.995.995,0,0,0,57,16H49V9a1.033,1.033,0,0,0-.29-.71l-6-6A1.033,1.033,0,0,0,42,2H22a1.033,1.033,0,0,0-.71.29l-6,6A1.033,1.033,0,0,0,15,9v7H7a.995.995,0,0,0-1,1.08l2.99,34.8-2.94,8.8a1,1,0,0,0,.14.9A.983.983,0,0,0,7,62H57a.983.983,0,0,0,.81-.42,1,1,0,0,0,.14-.9ZM22.41,4H41.59l4,4H18.41ZM47,10v6H43V10Zm-6,0v6H23V10ZM17,10h4v6H17ZM8.39,60l2.56-7.68a1.1,1.1,0,0,0,.05-.4L8.09,18H55.91L53,51.92a1.1,1.1,0,0,0,.05.4L55.61,60Z"/></g></svg>
