<?xml version="1.0"?>
<svg xmlns="http://www.w3.org/2000/svg" viewBox="0 0 512 512" width="512" height="512"><g id="outline"><path d="M488,408h-8V384a8,8,0,0,0-8-8H432V280a32.031,32.031,0,0,0,32-32.14,7.959,7.959,0,0,0-5.469-7.446L392,218.237V168h40a32.032,32.032,0,0,0,32-32.139,7.96,7.96,0,0,0-5.469-7.447L390.7,105.8,384,79.031V64a8,8,0,0,0-8-8h0a8,8,0,0,0-8,8v8H144V64a8,8,0,0,0-8-8h0a8,8,0,0,0-8,8V79.031L121.305,105.8,53.469,128.414A7.96,7.96,0,0,0,48,135.861,32.032,32.032,0,0,0,80,168h40v50.237L53.469,240.414A7.959,7.959,0,0,0,48,247.86,32.031,32.031,0,0,0,80,280v96H40a8,8,0,0,0-8,8v24H24a8,8,0,0,0-8,8v32a8,8,0,0,0,8,8H488a8,8,0,0,0,8-8V416A8,8,0,0,0,488,408Zm-24,0H334.242l-4-16H464Zm-269.75,0,4-16H224v8h16v-8h32v8h16v-8h25.75l4,16ZM96,312h48v16H96Zm64,0h32v16H160Zm256,16H368V312h48Zm-64,0H320V312h32Zm-32,48V344h32v32Zm-80,0V344h32v32Zm-32-32h16v32H208Zm80,0h16v32H288Zm16-16H208V312h96ZM192,344v32H160V344Zm176,32V344h48v32Zm8-160H360V200h16ZM184,200v16H168V200Zm16,0h16v16H200Zm32,0h16v16H232Zm32,0h16v16H264Zm32,0h16v16H296Zm32,0h16v16H328ZM64.953,141.445l65.578-21.859a7.965,7.965,0,0,0,5.227-5.648L142.25,88h227.5l6.492,25.938a7.965,7.965,0,0,0,5.227,5.648l65.578,21.859A16.03,16.03,0,0,1,432,152H80A16.03,16.03,0,0,1,64.953,141.445ZM136,168H376v16H136Zm16,32v16H136V200ZM64.953,253.445,129.3,232H382.7l64.344,21.445A16.03,16.03,0,0,1,432,264H80A16.03,16.03,0,0,1,64.953,253.445ZM416,280v16H96V280ZM96,344h48v32H96ZM48,392H181.758l-4,16H48ZM32,424H173.758l-4,16H32Zm154.25,16,4-16H224v8h16v-8h32v8h16v-8h33.75l4,16ZM480,440H342.242l-4-16H480Z"/></g></svg>
