<svg id="Capa_1" enable-background="new 0 0 512 512" height="512" viewBox="0 0 512 512" width="512" xmlns="http://www.w3.org/2000/svg"><g><path d="m509.545 139.97c-.889-6.687-6.15-11.949-12.838-12.838-1.421-.188-32.453-4.205-74.608-1.538 4.491-40.338.373-72.302.169-73.841-.889-6.687-6.15-11.949-12.838-12.838-3.963-.527-94.5-11.979-164.211 27.174-25.349-14.17-56.406-23.421-91.823-27.177-39.721-4.212-70.94-.171-72.249.003-6.688.889-11.949 6.151-12.838 12.839-.187 1.403-3.971 30.74-.366 68.64-30.572-.308-51.314 2.378-52.54 2.541-6.688.889-11.949 6.151-12.838 12.838-.234 1.758-5.662 43.684.013 97.188 3.354 31.629 9.925 60.779 19.528 86.64 12.216 32.896 29.402 60.569 51.084 82.25 21.681 21.681 49.354 38.868 82.25 51.083 25.861 9.603 55.011 16.173 86.641 19.527 18.235 1.934 35.123 2.579 49.537 2.579 27.878 0 46.493-2.411 47.652-2.565 6.688-.889 11.949-6.151 12.838-12.837.073-.552.658-5.056 1.25-12.628 35.862-11.852 65.618-29.411 88.54-52.333 20.778-20.778 37.246-47.29 48.947-78.802 9.192-24.754 15.48-52.651 18.69-82.917 5.428-51.182.233-91.305.01-92.988zm-115.852-72.453c.822 13.076 1.335 35.684-2.059 61.094-27.607 3.779-53.038 10.248-75.8 19.221-8.987-22.154-21.1-40.934-36.135-55.969-2.157-2.157-4.407-4.249-6.726-6.287 44.962-19.928 97.663-19.473 120.72-18.059zm-296.797-.017c30.726-1.914 114.031-2.162 161.679 45.486 12.48 12.48 22.572 28.402 30.109 47.425-9.309 5.028-18.015 10.565-26.083 16.584-18.146-14.027-39.359-25.603-63.369-34.519-25.861-9.603-55.011-16.173-86.64-19.528-4.936-.524-9.772-.952-14.488-1.299-2.439-22.483-1.949-42.255-1.208-54.149zm-2.583 313.228c-42.393-42.394-57.09-105.098-61.954-150.236-3.664-33.998-2.46-63.489-1.293-79.05 38.162-2.836 160.237-5.816 229.292 63.241 42.394 42.394 57.091 105.098 61.955 150.236 3.308 30.695 2.648 57.712 1.629 74.124-17.496-5.857-48.56-20.468-83.173-56.083 6.116-15.593 15.185-47.904 8.031-90.694-1.36-8.136-9.056-13.629-17.196-12.27-8.137 1.36-13.63 9.06-12.269 17.196 4.131 24.709 1.765 45.123-1.612 59.337-13.306-16.915-26.801-37.108-39.966-61.245-3.951-7.242-13.023-9.909-20.266-5.96-7.243 3.95-9.911 13.023-5.961 20.265 42.709 78.3 85.796 116.386 117.931 134.978-53.268-2.598-127.059-15.751-175.148-63.839zm326.46-7.174c-17.322 17.322-39.507 31.156-66.111 41.303.089-15.022-.505-32.947-2.569-52.408-3.354-31.629-9.925-60.779-19.528-86.64-11.493-30.953-27.391-57.277-47.291-78.341 39.783-27.631 89.73-37.659 126.356-41.094 29.71-2.787 55.268-1.77 69.396-.731 2.692 36.989 5.178 152.479-60.253 217.911z"/></g></svg>