<svg width="39" height="39" viewBox="0 0 39 39" fill="none" xmlns="http://www.w3.org/2000/svg">
<g clip-path="url(#clip0)">
<path d="M38.813 10.6618C38.7453 10.1524 38.3445 9.75159 37.8351 9.68388C37.7269 9.66956 35.3631 9.36357 32.1521 9.56673C32.4942 6.4941 32.1805 4.05935 32.1649 3.94212C32.0972 3.43276 31.6965 3.03194 31.187 2.96422C30.8852 2.92408 23.9888 2.05176 18.6788 5.03412C16.7479 3.95476 14.3822 3.2501 11.6845 2.96399C8.65883 2.64316 6.28083 2.95097 6.18112 2.96422C5.67168 3.03194 5.27094 3.43276 5.20322 3.94219C5.18898 4.04906 4.90074 6.28372 5.17534 9.17063C2.84662 9.14717 1.26666 9.35177 1.17327 9.36418C0.663836 9.4319 0.263096 9.83272 0.195379 10.3421C0.177555 10.476 -0.235906 13.6696 0.196369 17.7451C0.45185 20.1543 0.952375 22.3747 1.68385 24.3446C2.61437 26.8504 3.92346 28.9583 5.57502 30.6097C7.2265 32.2612 9.3344 33.5704 11.8402 34.5008C13.81 35.2323 16.0304 35.7328 18.4398 35.9882C19.8288 36.1356 21.1151 36.1847 22.2131 36.1847C24.3366 36.1847 25.7545 36.001 25.8428 35.9893C26.3523 35.9216 26.753 35.5208 26.8207 35.0115C26.8263 34.9694 26.8708 34.6264 26.9159 34.0496C29.6476 33.1468 31.9142 31.8093 33.6602 30.0633C35.2429 28.4806 36.4973 26.4611 37.3886 24.0608C38.0887 22.1752 38.5677 20.0503 38.8122 17.7448C39.2257 13.8462 38.83 10.79 38.813 10.6618ZM29.9883 5.14289C30.0509 6.13891 30.09 7.86101 29.8315 9.79654C27.7286 10.0844 25.7915 10.5771 24.0577 11.2606C23.3731 9.57312 22.4504 8.14262 21.3052 6.99737C21.1409 6.83307 20.9695 6.67372 20.7929 6.51848C24.2177 5.00053 28.232 5.03518 29.9883 5.14289ZM7.38075 5.1416C9.7212 4.9958 16.0667 4.97691 19.6961 8.60635C20.6468 9.55697 21.4155 10.7698 21.9896 12.2188C21.2805 12.6018 20.6174 13.0236 20.0028 13.482C18.6206 12.4136 17.0048 11.5318 15.1759 10.8527C13.206 10.1212 10.9856 9.62073 8.57634 9.36517C8.20036 9.32526 7.83199 9.29266 7.47276 9.26623C7.28698 7.55366 7.3243 6.04758 7.38075 5.1416ZM7.184 29.0008C3.95484 25.7715 2.83534 20.9952 2.46484 17.557C2.18575 14.9673 2.27746 12.7209 2.36635 11.5356C5.27322 11.3196 14.5719 11.0926 19.832 16.3528C23.0612 19.582 24.1807 24.3583 24.5512 27.7966C24.8032 30.1347 24.7529 32.1926 24.6753 33.4427C23.3426 32.9966 20.9764 31.8836 18.3398 29.1708C18.8057 27.983 19.4965 25.5218 18.9516 22.2624C18.848 21.6427 18.2617 21.2243 17.6417 21.3278C17.0219 21.4314 16.6035 22.0179 16.7072 22.6377C17.0218 24.5198 16.8416 26.0748 16.5844 27.1575C15.5708 25.869 14.5429 24.3309 13.5401 22.4923C13.2391 21.9407 12.5481 21.7375 11.9964 22.0383C11.4447 22.3392 11.2414 23.0303 11.5423 23.582C14.7955 29.5462 18.0776 32.4473 20.5253 33.8635C16.4678 33.6656 10.847 32.6637 7.184 29.0008ZM32.0511 28.4543C30.7316 29.7738 29.0417 30.8275 27.0153 31.6004C27.022 30.4562 26.9768 29.0908 26.8196 27.6084C26.5641 25.1992 26.0636 22.9788 25.3321 21.0089C24.4566 18.6511 23.2457 16.646 21.7298 15.0415C24.7602 12.9368 28.5647 12.1729 31.3546 11.9113C33.6177 11.699 35.5645 11.7765 36.6406 11.8556C36.8457 14.6731 37.0351 23.4702 32.0511 28.4543Z" fill="black"/>
</g>
<defs>
<clipPath id="clip0">
<rect width="39" height="39" fill="white"/>
</clipPath>
</defs>
</svg>
